<svg xmlns="http://www.w3.org/2000/svg" style="enable-background:new 0 0 19 9.6" xml:space="preserve" viewBox="0 0 19 9.6"><path d="M12.1 1.1C7.7-1 6 .3 9 2.2c1.1-.3 2.8-.6 3.9-.8-.2 0-.6-.2-.8-.3zm-2.8 2zM4.8 6.8C2.7 8 1.1 8.7 0 9c1.7-.4 3.7-1.2 5.5-2.1C7.4 6 9.1 5 10.4 4.1l-.5-.4c-.6-.6-.6-.5.1-.4 2 .4 3.3.6 3.3.6s-.4 1.4-1.8 3.8c-.3.6-.2.6-.3-.1l-.2-.9c-1.2.9-2.6 1.7-4.1 2.2 1.5-.4 2.2-.6 3.4-1.2-.9 2.2.5 2.9 3-.1.9-1.1 1.5-2.1 1.9-2.8 6.2-2.4 4.9-5.1-3.5-3-3 .7-5.2 1.5-6.7 2.3-5.2-4.2-2.1 2.3-.2 2.7z" style="fill-rule:evenodd;clip-rule:evenodd;fill:#fff"/></svg>