<svg xmlns="http://www.w3.org/2000/svg" viewBox="0 0 998.2 503.4" style="enable-background:new 0 0 998.2 503.4" xml:space="preserve"><path d="M450.4 142.7c-18.2 10.5-32.9 25.5-43.1 43.1-10.2 17.6-15.8 37.8-15.7 58.8 0 1.5-1.2 2.7-2.7 2.7-1.5 0-2.7-1.2-2.7-2.7 0-22 5.8-43.1 16.5-61.5 10.6-18.4 26-34 45-45 1.3-.7 2.9-.3 3.6 1 .8 1.3.4 2.9-.9 3.6zm117.7 203.8c1.3-.7 2.9-.3 3.6 1 .7 1.3.3 2.9-1 3.6-19 11-40.3 16.5-61.5 16.5-21.2 0-42.5-5.5-61.5-16.5-1.3-.7-1.7-2.4-1-3.6.7-1.3 2.4-1.7 3.6-1 18.2 10.5 38.5 15.8 58.8 15.8 20.5 0 40.8-5.3 59-15.8zM459.4 158.3c1.3-.7 1.7-2.4 1-3.6-.7-1.3-2.4-1.7-3.6-1-16.2 9.4-29.3 22.7-38.4 38.4-9 15.7-14 33.7-14.1 52.5 0 1.5 1.2 2.7 2.7 2.7 1.5 0 2.7-1.2 2.7-2.7 0-17.8 4.8-34.9 13.4-49.8 8.5-14.9 20.9-27.6 36.3-36.5zm8.7 15.1c1.3-.7 1.7-2.4 1-3.6-.7-1.3-2.4-1.7-3.6-1-13.6 7.8-24.5 19-32.1 32-7.6 13.1-11.7 28.2-11.7 43.8 0 1.5 1.2 2.7 2.7 2.7 1.5 0 2.7-1.2 2.7-2.7 0-14.7 3.9-28.8 11-41.1 7-12.3 17.3-22.8 30-30.1zm91 157.5c-15.4 8.9-32.6 13.3-49.8 13.3-17.2 0-34.4-4.4-49.8-13.3-1.3-.7-2.9-.3-3.6 1-.7 1.3-.3 2.9 1 3.6 16.2 9.4 34.4 14.1 52.5 14.1s36.2-4.7 52.5-14.1c1.3-.7 1.7-2.4 1-3.6-.9-1.3-2.6-1.8-3.8-1zm-94.6-14.1c.7-1.3 2.4-1.7 3.6-1 12.7 7.3 26.9 11 41.1 11 14.2 0 28.4-3.7 41.1-11 1.3-.7 2.9-.3 3.6 1 .7 1.3.3 2.9-1 3.6-13.5 7.8-28.7 11.7-43.8 11.8-15.1 0-30.2-3.9-43.8-11.8-1.1-.7-1.6-2.3-.8-3.6zm95.3-81.4v.2c.5 2.9.8 5.9.8 9 0 4.5-.6 8.8-1.6 12.9l-.1.5-.1.4-.1.5v.1l-.1.3-.2.7-.1.2-.2.7v.1l-.3.8v.2l-.2.6-.2.4-.1.3-.2.6-.1.3c-1.5 3.6-3.3 6.9-5.5 10-3.5 5.1-8 9.5-13.3 13.1-17 11.5-39.3 11.7-56.6.6-3.7-2.4-7-5.2-9.9-8.4-3.4-3.7-6.3-8-8.6-12.6l-.2-.5-.2-.4-.2-.4-.1-.2-.3-.7v-.1c-.8-2-1.5-4-2.1-6v-.1l-.2-.7v-.2l-.2-.7-.1-.4-.1-.3c-.8-3.7-1.3-7.5-1.3-11.4 0-2.6.2-5.2.6-7.8v-.2c3.8-24.6 25.1-43.4 50.8-43.4 24.9-.2 45.9 18 50.3 42zm-28.5 9.2c0-12.2-9.9-22.1-22.1-22.1-12.2 0-22.1 9.9-22.1 22.1 0 12.2 9.9 22.1 22.1 22.1 12.2 0 22.1-9.9 22.1-22.1zm74-81.2L569.9 102c-18.6-7.9-39.1-12.3-60.7-12.3-85.6 0-154.9 69.4-154.9 154.9 0 17.5 2.9 34.3 8.2 50 2 6 4.5 11.9 7.2 17.5l.2.4 1.1 2.2.4.8.9 1.7.8 1.5.5.9c28 50.7 82.6 82.2 142 79.8 55.7-2.3 104.8-34.2 130.3-81.8 5.9-11 10.5-22.8 13.6-35.2v-.1c3-12 4.6-24.6 4.6-37.6 0-51-24.6-96.2-62.6-124.4l20.9 36.2 1.2 4.6v72.6c5.2 2 8.8 7.1 8.8 12.9v33c0 7.6-6.2 13.9-13.9 13.9h-8.2c-7.6 0-13.9-6.2-13.9-13.9v-33c0-5.9 3.7-10.9 8.8-12.9v-70.3z" style="fill-rule:evenodd;clip-rule:evenodd;fill:#fff"/><path d="M52.5 224.8c10.4-2.8 21.3 3.5 24.1 13.9 2.8 10.4-3.5 21.3-13.9 24.1l-15.4 4.1c-10.4 2.8-21.3-3.5-24.1-13.9-2.8-10.4 3.5-21.3 13.9-24.1l15.4-4.1zM878.4 84.9l95-25.5c10.4-2.8 21.3 3.5 24.1 13.9 2.8 10.4-3.5 21.3-13.9 24.1l-95 25.5c-10.4 2.8-21.3-3.5-24.1-13.9-2.7-10.5 3.5-21.3 13.9-24.1zm-43.1 92.9 38.8-10.4c10.4-2.8 21.3 3.5 24 13.9 2.8 10.4-3.5 21.3-13.9 24.1l-38.8 10.4c-10.4 2.8-21.3-3.5-24-13.9-2.8-10.5 3.5-21.3 13.9-24.1zM173.1 436.5c10.4-2.8 21.3 3.5 24.1 13.9 2.8 10.4-3.5 21.3-13.9 24.1L77.9 502.7c-10.4 2.8-21.3-3.5-24.1-13.9-2.8-10.4 3.5-21.3 13.9-24.1l105.4-28.2zm106.4-109.8L225.9 341c-10.4 2.8-21.3-3.4-24.1-13.9-2.8-10.4 3.5-21.3 13.9-24.1l53.6-14.4c10.4-2.8 21.3 3.5 24.1 13.9 2.8 10.6-3.5 21.4-13.9 24.2zM632.9 69.3c-50.2-35.4-115.2-49-179.2-31.9-64 17.1-113.4 61.4-139.2 117.2l-51.1 13.7-120.5 32.3-43.2 11.6C89.3 215 83 225.8 85.8 236.3c2.8 10.4 13.6 16.7 24.1 13.9l167.6-44.9c10.4-2.8 21.3 3.5 24.1 13.9 2.8 10.4-3.5 21.3-13.9 24.1l-273 73.2C4.1 319.1-2.1 330 .7 340.4c2.8 10.4 13.6 16.7 24.1 13.9l89.3-23.9c10.4-2.8 21.3 3.5 24.1 13.9 2.8 10.4-3.5 21.3-13.9 24l-17 4.6c-10.4 2.8-16.7 13.6-13.9 24 2.8 10.4 13.6 16.7 24.1 13.9L362.9 345c-35-51.1-41.3-117.5-14.7-174.9C388 84 488.5 44.3 576.3 80.1c19 7.7 36 18.4 50.8 31.5l33.3-8.9c10.4-2.8 21.3 3.5 24.1 13.9 2.8 10.4-3.5 21.3-13.9 24.1l-14.4 3.9c19.9 29.1 31.1 64.2 30.9 101.1-.4 72.6-44.9 137.7-112.4 164.3-62.4 24.6-132.9 11.9-182.6-31.9l-152.4 40.8c-10.4 2.8-16.7 13.6-13.9 24.1 2.8 10.4 13.6 16.7 24.1 13.9l49.8-13.4 35.2-9.4 51.1-13.7c50.2 35.3 115.2 49 179.2 31.9 64-17.1 113.4-61.4 139.2-117.2l21.2-5.7 181.5-48.6 13.8-3.7c10.4-2.8 16.7-13.6 13.9-24.1-2.8-10.4-13.6-16.7-24.1-13.9L724.5 289c-10.4 2.8-21.3-3.4-24.1-13.9-2.8-10.4 3.5-21.3 13.9-24.1l75-20.1c10.4-2.8 16.7-13.6 13.9-24.1-2.8-10.4-13.6-16.7-24.1-13.9L731 205.7c-10.4 2.8-21.3-3.5-24.1-13.9-2.8-10.4 3.5-21.3 13.9-24.1l112.5-30.1c10.4-2.8 16.7-13.6 13.9-24.1-2.8-10.4-13.6-16.7-24.1-13.9L743 121c-10.4 2.8-21.3-3.5-24.1-13.9-2.8-10.4 3.5-21.3 13.9-24.1l166.3-44.6c10.4-2.8 16.7-13.6 13.9-24C910.2 4 899.4-2.3 889 .5L750 37.7l-96.1 25.8-21 5.8z" style="fill-rule:evenodd;clip-rule:evenodd;fill:#2ac0df"/></svg>